<svg width="19" height="18" viewBox="0 0 19 18" fill="none" xmlns="http://www.w3.org/2000/svg">
<g id="message-2-line">
<path id="Vector" d="M5.80325 13.5556L2.83325 15.8889V3.55555C2.83325 3.37874 2.90349 3.20917 3.02851 3.08415C3.15354 2.95912 3.32311 2.88889 3.49992 2.88889H15.4999C15.6767 2.88889 15.8463 2.95912 15.9713 3.08415C16.0963 3.20917 16.1666 3.37874 16.1666 3.55555V12.8889C16.1666 13.0657 16.0963 13.2353 15.9713 13.3603C15.8463 13.4853 15.6767 13.5556 15.4999 13.5556H5.80325ZM5.34192 12.2222H14.8333V4.22222H4.16659V13.1456L5.34192 12.2222ZM8.83325 7.55555H10.1666V8.88889H8.83325V7.55555ZM6.16658 7.55555H7.49992V8.88889H6.16658V7.55555ZM11.4999 7.55555H12.8333V8.88889H11.4999V7.55555Z" fill="#868C98"/>
</g>
</svg>
